LG_Sit_Stand_Walk07																		
version=1																		
nRows=44																		
nColumns=19																		
inDegrees=yes																		
endheader																		
time	ground_force2_vx	ground_force2_vy	ground_force2_vz	ground_force2_px	ground_force2_py	ground_force2_pz	ground_torque2_x	ground_torque2_y	ground_torque2_z	ground_force1_vx	ground_force1_vy	ground_force1_vz	ground_force1_px	ground_force1_py	ground_force1_pz	ground_torque1_x	ground_torque1_y	ground_torque1_z
4.18	11.943699	205.574173	-25.612997	0.199097	0	-0.11892	1.00E-06	1.383307	3.00E-06	0	0	0	-0.13	0	0.305	0	0	0
4.181	11.943699	223.508789	-26.397873	0.197605	0	-0.129664	-1.00E-06	1.383307	3.00E-06	0	0	0	-0.13	0	0.305	0	0	0
4.182	10.626728	243.903564	-26.397873	0.197461	0	-0.138356	1.00E-06	1.024262	3.00E-06	0	0	0	-0.13	0	0.305	0	0	0
4.183	9.223246	264.962952	-23.969667	0.197355	0	-0.147616	3.00E-06	0.952257	2.00E-06	0	0	0	-0.13	0	0.305	0	0	0
4.184	8.209019	283.602234	-22.325169	0.19628	0	-0.154735	3.00E-06	0.952257	2.00E-06	0	0	0	-0.13	0	0.305	0	0	0
4.185	8.209019	289.484589	-22.325169	0.195493	0	-0.154735	2.00E-06	0.953847	2.00E-06	0	0	0	-0.13	0	0.305	0	0	0
4.186	8.658807	290.865997	-24.283754	0.1946	0	-0.15205	2.00E-06	1.397549	1.00E-06	0	0	0	-0.13	0	0.305	0	0	0
4.187	8.658807	290.865997	-24.753534	0.1946	0	-0.149659	0.00E+00	1.47995	1.00E-06	0	0	0	-0.13	0	0.305	0	0	0
4.188	7.63159	290.865997	-25.144222	0.196485	0	-0.141844	0.00E+00	1.47995	1.00E-06	0	0	0	-0.13	0	0.305	0	0	0
4.189	5.902273	293.486877	-25.378693	0.198651	0	-0.137817	0	1.47995	3.00E-06	0	0	0	-0.13	0	0.305	0	0	0
4.19	3.537159	299.353485	-25.534586	0.200663	0	-0.134318	1.00E-06	1.47019	3.00E-06	0	0	0	-0.13	0	0.305	0	0	0
4.191	1.887856	302.827393	-26.082821	0.201834	0	-0.130383	3.00E-06	1.47019	2.00E-06	0	0	0	-0.13	0	0.305	0	0	0
4.192	-0.543564	306.793518	-27.806293	0.201834	0	-0.129723	3.00E-06	1.341191	2.00E-06	0	0	0	-0.13	0	0.305	0	0	0
4.193	-1.012112	307.478546	-28.511951	0.200818	0	-0.128556	3.00E-06	1.341191	1.00E-06	0	0	0	-0.13	0	0.305	0	0	0
4.194	-1.012112	309.048096	-29.844296	0.199877	0	-0.128556	0.00E+00	1.346425	1.00E-06	0	0	0	-0.13	0	0.305	0	0	0
4.195	-1.158434	316.646088	-31.333502	0.198792	0	-0.130937	0	1.568965	-1.00E-06	0	0	0	-0.13	0	0.305	0	0	0
4.196	-1.158434	326.317352	-31.961029	0.198005	0	-0.134341	0.00E+00	1.614241	-1.00E-06	0	0	0	-0.13	0	0.305	0	0	0
4.197	-1.941994	339.426941	-32.901722	0.19789	0	-0.140451	1.00E-06	1.696967	-1.00E-06	0	0	0	-0.13	0	0.305	0	0	0
4.198	-2.959108	350.487976	-33.293697	0.197614	0	-0.142386	2.00E-06	1.696967	5.00E-06	0	0	0	-0.13	0	0.305	0	0	0
4.199	-3.509838	355.005676	-34.86047	0.197614	0	-0.142386	2.00E-06	1.629751	1.00E-06	0	0	0	-0.13	0	0.305	0	0	0
4.2	-4.13553	355.665192	-36.035583	0.197614	0	-0.139519	2.00E-06	1.629751	5.00E-06	0	0	0	-0.13	0	0.305	0	0	0
4.201	-4.226372	355.005676	-37.915562	0.197879	0	-0.138092	2.00E-06	1.715258	2.00E-06	0	0	0	-0.13	0	0.305	0	0	0
4.202	-5.330717	354.651428	-39.638714	0.198335	0	-0.134377	5.00E-06	1.715258	5.00E-06	0	0	0	-0.13	0	0.305	0	0	0
4.203	-6.042919	354.651428	-40.499863	0.199495	0	-0.131967	5.00E-06	1.679841	6.00E-06	0	0	0	-0.13	0	0.305	0	0	0
4.204	-7.850811	356.559692	-41.204758	0.200708	0	-0.130154	0	1.677733	6.00E-06	0	0	0	-0.13	0	0.305	0	0	0
4.205	-8.873695	357.256744	-41.752911	0.201108	0	-0.127273	0.00E+00	1.679841	4.00E-06	0	0	0	-0.13	0	0.305	0	0	0
4.206	-9.113745	361.059662	-42.614708	0.201506	0	-0.127273	-1.00E-06	1.654379	4.00E-06	0	0	0	-0.13	0	0.305	0	0	0
4.207	-9.89081	364.341003	-43.633606	0.201108	0	-0.128318	1.00E-06	1.706754	4.00E-06	0	0	0	-0.13	0	0.305	0	0	0
4.208	-10.822857	366.759094	-45.201065	0.200843	0	-0.128901	4.00E-06	1.625828	5.00E-06	0	0	0	-0.13	0	0.305	0	0	0
4.209	-10.830795	371.443726	-45.67165	0.200843	0	-0.129734	5.00E-06	1.706754	5.00E-06	0	0	0	-0.13	0	0.305	0	0	0
4.21	-11.293571	381.953156	-46.063744	0.200843	0	-0.133884	4.00E-06	1.911696	5.00E-06	0	0	0	-0.13	0	0.305	0	0	0
4.211	-11.375029	385.598663	-46.142437	0.199891	0	-0.134723	4.00E-06	1.936027	5.00E-06	0	0	0	-0.13	0	0.305	0	0	0
4.212	-12.316458	389.733643	-47.082565	0.199813	0	-0.134869	3.00E-06	1.911696	5.00E-06	0	0	0	-0.13	0	0.305	0	0	0
4.213	-13.25572	390.252075	-47.082607	0.199813	0	-0.134869	4.00E-06	1.890037	4.00E-06	0	0	0	-0.13	0	0.305	0	0	0
4.214	-14.044331	393.0177	-47.082607	0.199931	0	-0.134075	3.00E-06	1.890037	4.00E-06	0	0	0	-0.13	0	0.305	0	0	0
4.215	-14.129398	392.158813	-47.395725	0.201217	0	-0.133975	3.00E-06	1.888681	4.00E-06	0	0	0	-0.13	0	0.305	0	0	0
4.216	-16.092993	392.158813	-47.629791	0.201392	0	-0.130387	2.00E-06	1.920931	2.00E-06	0	0	0	-0.13	0	0.305	0	0	0
4.217	-17.118765	392.158813	-48.099815	0.201412	0	-0.127082	-1.00E-06	1.920931	2.00E-06	0	0	0	-0.13	0	0.305	0	0	0
4.218	-17.511625	392.177429	-47.70784	0.202417	0	-0.127082	2.00E-06	1.929991	3.00E-06	0	0	0	-0.13	0	0.305	0	0	0
4.219	-19.241665	394.427032	-47.864822	0.202417	0	-0.126341	0.00E+00	1.929991	4.00E-06	0	0	0	-0.13	0	0.305	0	0	0
4.22	-20.568016	394.754486	-47.70784	0.202773	0	-0.127682	1.00E-06	1.97623	4.00E-06	0	0	0	-0.13	0	0.305	0	0	0
4.221	-21.200205	401.492371	-47.629993	0.202326	0	-0.127895	1.00E-06	1.812843	5.00E-06	0	0	0	-0.13	0	0.305	0	0	0
4.222	-22.838684	404.602051	-47.317074	0.202326	0	-0.129356	2.00E-06	2.024507	5.00E-06	0	0	0	-0.13	0	0.305	0	0	0
4.223	-23.078732	406.512939	-47.317074	0.202028	0	-0.129693	2.00E-06	2.115915	5.00E-06	0	0	0	-0.13	0	0.305	0	0	0
